HIERARCHY
ROOT Hips
{
  OFFSET 123.922 93.1688 -116.153
  CHANNELS 6 Xposition Yposition Zposition Zrotation Xrotation Yrotation
  JOINT RightUpLeg
  {
    OFFSET -8.9458 -8.66707 0.101652
    CHANNELS 3 Zrotation Xrotation Yrotation
    JOINT RightLeg
    {
      OFFSET 0 -44.4227 1.3727
      CHANNELS 3 Zrotation Xrotation Yrotation
      JOINT RightFoot
      {
        OFFSET 0.253549 -42.0924 -1.46059
        CHANNELS 3 Zrotation Xrotation Yrotation
        JOINT RightToes
        {
          OFFSET 0.04 -4.41509 8.4991
          CHANNELS 3 Zrotation Xrotation Yrotation
          End Site
          {
            OFFSET -0.08 -0.137448 9.77979
          }
        }
      }
    }
  }
  JOINT Spine
  {
    OFFSET 0 11.8905 0
    CHANNELS 3 Zrotation Xrotation Yrotation
    JOINT Spine1
    {
      OFFSET 0 25.6574 0.127663
      CHANNELS 3 Zrotation Xrotation Yrotation
      JOINT HEad
      {
        OFFSET 0 8.73416 0.011341
        CHANNELS 3 Zrotation Xrotation Yrotation
        End Site
        {
          OFFSET -0.29 12.7742 2.51395
        }
      }
      JOINT LeftShoulder1
      {
        OFFSET 8.99 -0.362252 -0.22
        CHANNELS 3 Zrotation Xrotation Yrotation
        JOINT LeftArm
        {
          OFFSET 10.2827 -0.00338 0.322123
          CHANNELS 3 Zrotation Xrotation Yrotation
          JOINT LeftForeArm
          {
            OFFSET 32.7669 0.099144 -1.42434
            CHANNELS 3 Zrotation Xrotation Yrotation
            JOINT LeftHand
            {
              OFFSET 27.5643 0.085362 1.02216
              CHANNELS 3 Zrotation Xrotation Yrotation
              End Site
              {
                OFFSET 16.7443 -0.6 1.50291
              }
            }
          }
        }
      }
      JOINT RightShoulder
      {
        OFFSET -8.99 -0.362252 -0.22
        CHANNELS 3 Zrotation Xrotation Yrotation
        JOINT RightArm
        {
          OFFSET -10.2827 -0.00338 0.322123
          CHANNELS 3 Zrotation Xrotation Yrotation
          JOINT RightForeArm
          {
            OFFSET -32.8971 0.099144 -1.42434
            CHANNELS 3 Zrotation Xrotation Yrotation
            JOINT RightHand
            {
              OFFSET -27.4921 0.085362 1.02216
              CHANNELS 3 Zrotation Xrotation Yrotation
              End Site
              {
                OFFSET -16.6312 -0.6 1.50291
              }
            }
          }
        }
      }
    }
  }
  JOINT LeftUpLeg
  {
    OFFSET 8.9458 -8.66707 0.101652
    CHANNELS 3 Zrotation Xrotation Yrotation
    JOINT LeftLeg
    {
      OFFSET 0 -44.4227 1.3727
      CHANNELS 3 Zrotation Xrotation Yrotation
      JOINT LeftFoot
      {
        OFFSET -0.253549 -42.0924 -1.46059
        CHANNELS 3 Zrotation Xrotation Yrotation
        JOINT LeftToes
        {
          OFFSET -0.04 -4.41509 8.4991
          CHANNELS 3 Zrotation Xrotation Yrotation
          End Site
          {
            OFFSET 0.08 -0.047448 9.77979
          }
        }
      }
    }
  }
}
MOTION
Frames:	7
Frame Time:	0.0166667
133.538 95.1044 -93.5653 6.52827 4.89484 -102.082 -9.88718 -13.4002 -4.75938 -4.78711 23.5739 16.1808 24.6935 -18.8943 2.2715 4.97536 8.46873 -0.313332 -0.426637 4.22502 1.37429 1.458 8.48496 2.58052 -8.07859 -9.16348 28.959 -3.97569e-016 5.76476e-015 1.59028e-015 -5.83248 -34.1114 -16.1504 -2.23261 -9.71574 -39.3651 18.757 10.0442 5.26164 7.62536 2.63771 20.5422 79.4093 -17.6485 46.7338 -16.282 46.4383 134.984 -19.4392 15.7775 -39.7262 25.9907 -16.2293 0.717035 -5.40993 31.8071 3.60365 -11.7998 -12.4603 -0.443481 4.12173 -5.10487 2.68641 
133.157 95.183 -93.4451 6.29955 5.25933 -100.645 -10.0061 -12.7762 -3.8364 -3.89198 24.1433 14.6547 24.191 -18.9767 2.23664 5.66021 8.65181 -2.80887 -0.617309 4.42333 1.81133 0.745403 8.86571 3.48831 -7.15584 -8.26311 27.1467 5.65532e-032 -2.03754e-015 1.59028e-015 -8.91212 -43.4987 -13.8671 -8.57159 2.931 -54.3428 23.2417 9.45384 2.05912 7.18439 2.58281 20.8415 80.1527 -20.8132 45.6592 -15.7009 47.8096 135.201 -21.0193 15.8027 -37.2074 26.1834 -16.3031 1.60162 -4.69414 31.2928 1.52688 -11.3892 -10.0139 -0.192575 6.91265 -8.76177 1.96736 
132.754 95.1549 -93.4178 6.15714 5.59287 -98.0632 -10.6793 -11.9674 -2.86015 -1.60713 24.6283 11.3449 22.4866 -16.4744 1.55698 2.35262 3.4682 -1.48109 -0.971086 4.41778 1.98454 0.164438 8.83611 3.85032 -5.73043 -7.77155 25.0195 7.95139e-016 7.45443e-016 3.97569e-016 -14.8878 -57.314 -13.003 -11.5687 21.9504 -66.0885 28.0024 9.12918 1.10817 7.45214 2.61809 20.6746 80.1837 -22.8339 44.1072 -14.8758 48.5964 134.59 -22.5715 15.8536 -35.1892 26.1374 -17.3218 2.2424 -3.54452 31.7696 -1.71214 -12.2951 -10.5251 -0.264374 6.53019 -8.42418 1.14601 
132.302 95.1889 -93.3905 6.05172 5.69251 -95.6314 -10.8623 -11.3741 -2.99753 -1.88802 25.3978 10.6562 23.5705 -16.2573 1.60005 2.36161 3.49877 -1.43095 -1.36619 4.64122 2.27848 -0.714309 9.25512 4.47404 -4.81275 -8.02608 22.9878 -7.95139e-016 3.01904e-015 -0 -28.5529 -71.6324 -19.1471 -11.3483 40.0548 -78.1514 33.5681 9.79051 3.94848 7.63669 2.62362 20.3997 80.8996 -25.051 43.4773 -13.8082 49.332 135.29 -21.1417 15.8105 -37.0583 25.3947 -17.7359 3.43186 -1.44877 31.1034 -5.32847 -12.1706 -10.5413 -0.262838 6.64737 -8.7296 0.338781 
131.913 95.1104 -93.435 5.81112 5.9936 -93.0181 -11.6175 -11.0269 -1.25379 0.675094 27.1354 8.23145 21.5823 -15.8712 1.36867 1.84847 2.5451 -1.67889 -1.42116 4.72297 2.54534 -1.14954 9.40075 5.04183 -5.33825 -7.18833 20.8373 4.06907e-032 2.93207e-015 -7.95139e-016 -51.2521 -78.2273 -34.4081 -7.609 49.4792 -90.7269 34.0129 9.79636 3.97345 7.74401 2.4908 19.0651 81.6282 -24.3706 42.7665 -14.1402 48.6265 136.244 -20.1839 15.8681 -38.9275 24.9964 -18.1005 2.75489 -0.744507 30.3324 -6.58593 -11.4426 -10.5015 -0.240294 7.0403 -9.46771 -0.747759 
131.466 95.1382 -93.5502 5.54739 6.26173 -90.6186 -11.7198 -10.7224 -0.600842 1.33746 28.8525 8.27361 19.5205 -15.9638 1.22913 1.74128 1.88466 -3.44431 -1.5077 4.7689 2.81922 -1.6797 9.47143 5.6279 -5.86485 -7.20763 18.8032 -4.13804e-032 -2.98177e-015 -7.95139e-016 -54.9201 -73.2189 -33.4002 0.262725 46.3828 -103.906 36.2538 10.434 6.01775 8.87688 2.72027 19.2103 80.9469 -25.7238 41.6123 -13.1822 48.4127 136.287 -19.8031 15.6942 -38.6117 24.1996 -18.0327 3.03559 1.35317 28.8702 -9.67499 -11.1205 -9.91836 -0.178087 7.89418 -10.5885 -0.640128 
131.062 95.1195 -93.8371 5.41679 6.09525 -88.4178 -12.2377 -10.8147 0.518066 2.20279 30.7945 8.6903 17.509 -15.7786 1.04851 2.26837 2.77728 -3.36909 -1.98506 4.99037 3.33636 -2.50404 9.86208 6.69912 -5.51514 -7.33386 16.7538 -0 -6.16232e-015 -0 -59.7065 -67.7538 -34.1223 4.79426 42.7132 -112.982 37.1436 10.9289 7.50339 9.06857 2.56046 17.669 80.8973 -24.6851 41.1232 -14.3914 46.6213 137.368 -20.6161 15.7009 -37.2982 23.3429 -18.0236 3.42907 2.64427 27.2918 -12.0915 -10.1075 -8.45541 -0.0356933 9.34129 -12.4334 -0.28883 
